<svg fill="none" height="21" viewBox="0 0 21 21" width="21" xmlns="http://www.w3.org/2000/svg"><path d="m20.8798 1.20408v17.86892c0 .5822-.5374 1.0749-1.1196 1.0749h-5.1054v-7.7477h2.5975l.403-3.04537h-3.0005v-1.92573c0-.8509.2239-1.47788 1.4778-1.47788h1.6123v-2.68706c-.2687-.04478-1.254-.13435-2.3288-.13435-2.3288 0-3.8962 1.4331-3.8962 3.9858v2.23922h-2.64231v3.04537h2.64231v7.7477h-9.62867c-.5822 0-1.074824-.4927-1.074824-1.0749v-17.86892c0-.582195.492624-1.1196073 1.074824-1.1196073h17.86897c.5822 0 1.1196.5374123 1.1196 1.1196073z" fill="#fff"/></svg>