<svg fill="none" height="21" viewBox="0 0 21 21" width="21" xmlns="http://www.w3.org/2000/svg"><path d="m19.0668.0844727c.7613 0 1.4331.6717653 1.4331 1.4778873v17.15244c0 .8061-.6718 1.4331-1.4331 1.4331h-17.24196c-.76134 0-1.388317-.627-1.388317-1.4331v-17.15244c0-.806122.626977-1.4778873 1.388317-1.4778873zm-12.58439 17.1972273v-9.53911h-2.95577v9.53911zm-1.47788-10.88264c.94047 0 1.7018-.76133 1.7018-1.7018s-.76133-1.74659-1.7018-1.74659c-.98526 0-1.74659.80612-1.74659 1.74659s.76133 1.7018 1.74659 1.7018zm12.62917 10.88264v-5.2398c0-2.55272-.5822-4.56801-3.5827-4.56801-1.4331 0-2.4184.80612-2.8215 1.56745h-.0447v-1.29875h-2.82145v9.53911h2.95575v-4.7024c0-1.254.2239-2.4631 1.7914-2.4631 1.5227 0 1.5227 1.4331 1.5227 2.5079v4.6576z" fill="#fff"/></svg>