<svg fill="none" height="20" viewBox="0 0 25 20" width="25" xmlns="http://www.w3.org/2000/svg"><path d="m22.4873 5.20947v.65625c0 6.51558-4.9219 13.96878-13.96875 13.96878-2.8125 0-5.39062-.7969-7.54687-2.2032.375.0469.75.0938 1.17187.0938 2.29688 0 4.40625-.7969 6.09375-2.1094-2.15625-.0469-3.98437-1.4531-4.59375-3.4219.32813.0469.60938.0938.9375.0938.42188 0 .89063-.0938 1.26563-.1875-2.25-.4688-3.9375-2.4375-3.9375-4.82813v-.04687c.65625.375 1.45312.5625 2.25.60937-1.35938-.89062-2.20313-2.39062-2.20313-4.07812 0-.9375.23438-1.78125.65625-2.48438 2.4375 2.95313 6.09375 4.92188 10.1719 5.15625-.0938-.375-.1406-.75-.1406-1.125 0-2.71875 2.2031-4.921872 4.9218-4.921872 1.4063 0 2.6719.5625 3.6094 1.546872 1.0781-.23437 2.1563-.65625 3.0938-1.218747-.375 1.171877-1.125 2.109377-2.1563 2.718747.9844-.09375 1.9688-.375 2.8125-.75-.6562.98438-1.5 1.82813-2.4375 2.53125z" fill="#fff"/></svg>