<?xml version="1.0" encoding="UTF-8"?> <svg xmlns="http://www.w3.org/2000/svg" height="1133" viewBox="0 0 1728 1133" width="1728"><g fill="none" fill-rule="evenodd" stroke="#b6c5cd" stroke-opacity=".5" stroke-width=".38" transform="translate(1 1)"><path d="m0 0h2011v1131.19h-2011z"></path><path d="m0 0h2011v1131.19h-2011z"></path><path d="m54.3073 70.3774h1760.7527v990.4226h-1760.7527z"></path><path d="m108.615 140.763h1510.515v849.661h-1510.515z"></path><path d="m162.915 211.14h1260.265v708.899h-1260.265z"></path><path d="m217.215 281.525h1010.025v568.144h-1010.025z"></path><path d="m271.523 351.903h759.787v427.381h-759.787z"></path><path d="m325.83 422.28h509.541v286.618h-509.541z"></path><path d="m380.122 492.665h259.304v145.856h-259.304z"></path><path d="m380.13 638.521-380.122565 492.669"></path><path d="m254.893 1131.19 190.061-492.669"></path><path d="m509.778 1131.19v-492.669"></path><path d="m2011 1131.19-1371.574-492.669"></path><path d="m1260.39 1131.19-685.788-492.669"></path><path d="m509.778 1131.19v-492.669"></path><path d="m380.13 565.589h-380.122565"></path><path d="m380.13 602.055-380.122565 246.333"></path><path d="m380.13 638.521-380.122565 492.669"></path><path d="m380.13 492.665-380.122565-492.665"></path><path d="m380.13 529.131-380.122565-246.332"></path><path d="m380.13 565.589h-380.122565"></path><path d="m509.778 492.665v-492.665"></path><path d="m444.954 492.665-190.061-492.665"></path><path d="m380.13 492.665-380.122565-492.665"></path><path d="m639.426 492.665 1371.574-492.665"></path><path d="m574.602 492.665 685.788-492.665"></path><path d="m509.778 492.665v-492.665"></path><path d="m639.426 565.589h1371.574"></path><path d="m639.426 529.131 1371.574-246.332"></path><path d="m639.426 492.665 1371.574-492.665"></path><path d="m639.426 565.589h1371.574"></path><path d="m2011 848.388-1371.574-246.333"></path><path d="m2011 1131.19-1371.574-492.669"></path></g></svg> 