<?xml version="1.0" encoding="UTF-8"?> <svg xmlns="http://www.w3.org/2000/svg" fill="none" height="66" viewBox="0 0 55 66" width="55"><g stroke-width="2.5"><path d="m44.3824 36.3672 8.3707 20.2789c.2571.5822-.262 1.2031-.8918 1.1051l-9.1344-2.1708c-.2782-.0831-.6357.0447-.7884.3239l-4.8481 8.0801c-.3023.4871-1.0756.4545-1.3328-.1277l-8.438-20.3531" stroke="#5001d0"></path><path d="m10.2907 36.3672-8.37069 20.2789c-.25716.5822.26203 1.2031.89174 1.1051l9.13445-2.1708c.2782-.0831.6357.0447.7884.3239l4.8481 8.0801c.3023.4871 1.0756.4545 1.3328-.1277l8.438-20.3531" stroke="#5001d0"></path><g stroke="#6af400"><path d="m17.2483 23.1666c0-5.5722 4.5066-10.0788 10.0788-10.0788 5.562 0 10.0787 4.5669 10.0787 10.1491 0 5.5722-4.5066 10.0788-10.0787 10.0788-5.5621 0-10.0788-4.5669-10.0788-10.1491z"></path><path d="m36.6982 44.7638-.0044.0087c-.1284.2568-.4217.4256-.7847.3911l-7.5605-2.4277c-.6342-.2098-1.3441-.239-2.0012.0094l-7.6348 2.4516v-.0001l-.0132.0044c-.2959.0986-.6135-.0384-.7383-.2879v-.0001l-.0044-.0087-3.659-7.1772-.0196-.0384-.0222-.037c-.3166-.5277-.7453-.9564-1.2731-1.2731l-.037-.0222-.0384-.0196-7.15778-3.649c-.26801-.1527-.40275-.461-.30886-.7749l2.45801-7.6549c.20983-.6342.23914-1.3441-.00936-2.0013l-2.45154-7.6348-.01608-.0501-.02022-.0485c-.0686-.1647-.01065-.4876.31991-.6529h.00002l.0087-.0044 7.1772-3.659.0384-.0196.037-.0222c.5278-.31663.9565-.74534 1.2731-1.2731l.0222-.03697.0196-.03842 3.659-7.17723v.00002l.0044-.00874c.1607-.32142.4571-.43955.7555-.35256l7.5823 2.52743.3915-1.17456-.3915 1.17456c.636.21202 1.3489.24251 2.0086-.00694l7.6348-2.45154v.00007l.0131-.00436c.296-.09866.6136.03837.7384.2879l.0044.00888.0046.0088 3.659 7.0365.0176.03378.0195.03265c.3167.52777.7454.95647 1.2732 1.27313l.0369.0222.0385.0196 7.1578 3.6491c.268.1526.4027.4609.3088.7747l-2.458 7.6552c-.2098.6341-.2391 1.344.0094 2.0011l2.4515 7.6348-.0001.0001.0044.0131c.0987.2959-.0384.6135-.2879.7383l-.0087.0044-7.1772 3.659-.0384.0196-.037.0222c-.5278.3166-.9565.7453-1.2732 1.2731l-.0221.037-.0196.0384z"></path></g></g></svg> 