<?xml version="1.0" encoding="UTF-8"?> <svg xmlns="http://www.w3.org/2000/svg" fill="none" height="51" viewBox="0 0 53 51" width="53"><path d="m45.8335 1.48283h-39.18679c-3.2542-.14198-5.991597 2.40516-6.150616 5.67073v24.83534c.159019 3.2286 2.885056 5.7161 6.119386 5.631h20.15282l12.9742 11.8639c.3976.3379.9002.5168 1.4028.5168.2896 0 .5764-.0596.8433-.1761.7838-.318 1.2694-1.0989 1.2012-1.965l-1.1358-10.2368h3.7625c.0766.0028.1561.0028.23.0028 3.1349 0 5.7672-2.4846 5.9206-5.6735v-24.83252c-.1562-3.22865-2.9277-5.7985-6.1336-5.63665zm-7.5676 32.83457c-.4117.4004-.6162.9569-.5594 1.5447l.8008 7.0508-9.5071-8.6779c-.389-.335-.8888-.5225-1.3971-.5225-.0057 0-.0113 0-.017 0l-21.06717.0057c-.01704 0-.03407 0-.05111 0-.99387 0-1.81736-.7922-1.84576-1.7747v-24.83538c.0284-.49125.24989-.94559.6162-1.27215.36915-.32655.83201-.49693 1.37722-.46002h39.22942l.1817-.00851c.4657.00567.903.18173 1.2437.50545.3578.33791.5623.79793.5765 1.26931l-.0029 24.8353c-.0567 1.0138-.9399 1.8316-1.9934 1.7294h-6.0824c-.4885-.0256-1.1103.2243-1.5022.6105z" fill="#5001d0" stroke="#030921"></path><g fill="#6af400"><path d="m14.9617 23.4104c1.5683 0 2.8396-1.2713 2.8396-2.8396s-1.2713-2.8396-2.8396-2.8396-2.8396 1.2713-2.8396 2.8396 1.2713 2.8396 2.8396 2.8396z"></path><path d="m26.3201 23.4104c1.5683 0 2.8396-1.2713 2.8396-2.8396s-1.2713-2.8396-2.8396-2.8396-2.8396 1.2713-2.8396 2.8396 1.2713 2.8396 2.8396 2.8396z"></path><path d="m37.6785 23.4104c1.5683 0 2.8396-1.2713 2.8396-2.8396s-1.2713-2.8396-2.8396-2.8396-2.8396 1.2713-2.8396 2.8396 1.2713 2.8396 2.8396 2.8396z"></path></g></svg> 