<svg xmlns="http://www.w3.org/2000/svg" width="23" height="21" viewBox="0 0 23 21" fill="none"><path d="M10.484 20.5407C10.4164 20.5407 10.3496 20.5267 10.2878 20.4996C10.2259 20.4725 10.1703 20.433 10.1245 20.3834L0.430859 9.89767C0.366239 9.82776 0.3234 9.74054 0.307585 9.64666C0.29177 9.55279 0.303665 9.45634 0.341814 9.36912C0.379964 9.2819 0.442712 9.20769 0.522381 9.15558C0.602049 9.10347 0.695181 9.07572 0.790378 9.07572H5.45634C5.5264 9.07573 5.59564 9.09076 5.65939 9.11981C5.72314 9.14885 5.77992 9.19123 5.8259 9.24409L9.06554 12.9712C9.41565 12.2228 10.0934 10.9766 11.2828 9.45815C13.0411 7.2133 16.3115 3.91182 21.907 0.931479C22.0151 0.873887 22.1409 0.85894 22.2596 0.889588C22.3782 0.920237 22.481 0.994254 22.5478 1.09702C22.6145 1.19979 22.6402 1.32384 22.62 1.44468C22.5997 1.56552 22.5348 1.67436 22.4382 1.74971C22.4169 1.76641 20.2594 3.46535 17.7765 6.57725C15.4914 9.44096 12.4538 14.1236 10.9591 20.1688C10.9328 20.275 10.8718 20.3693 10.7856 20.4368C10.6995 20.5042 10.5932 20.5409 10.4838 20.5409L10.484 20.5407Z" fill="#6AF400"></path></svg>