<?xml version="1.0" encoding="UTF-8"?> <svg xmlns="http://www.w3.org/2000/svg" xmlns:xlink="http://www.w3.org/1999/xlink" fill="none" height="52" viewBox="0 0 76 52" width="76"><mask id="a" fill="#fff"><path clip-rule="evenodd" d="m60.8058 52h-43.405v-.0458c-9.72322-.6769-17.4008-8.779-17.4008-18.6743 0-10.3387 8.38123-18.72 18.72-18.72.4274 0 .8515.0144 1.2718.0426 1.9834-8.373 9.5077-14.6025 18.487-14.6025 10.4924 0 18.9981 8.50572 18.9981 18.9981 0 1.1204-.097 2.2181-.283 3.2853 1.167-.2897 2.3878-.4434 3.6444-.4434 8.3284 0 15.08 6.7516 15.08 15.08 0 8.2475-6.6209 14.9486-14.8375 15.0781v.0019h-.21c-.0108 0-.0217 0-.0325 0-.0109 0-.0217 0-.0325 0z" fill="#fff" fill-rule="evenodd"></path></mask><path d="m60.8058 52 .0052-2.5h-.0052zm-43.405 0h-2.5c0 1.3807 1.1193 2.5 2.5 2.5zm0-.0458h2.5c0-1.3134-1.0162-2.4028-2.3264-2.494zm2.591-37.3517-.1673 2.4944c1.2189.0817 2.3184-.7294 2.6-1.9182zm37.2021 7.6809-2.4629-.4294c-.1451.8327.1403 1.6823.7587 2.2585s1.486.8009 2.3064.5973zm3.8869 29.7147-.0394-2.4997c-1.3652.0216-2.4606 1.1344-2.4606 2.4997zm0 .0019v2.5c1.3807 0 2.5-1.1193 2.5-2.5zm-.21 0v-2.5h-.0053zm-.065-2.5h-43.405v5h43.405zm-40.905 2.5v-.0458h-5v.0458zm-2.3264-2.5398c-8.42223-.5863-15.0744-7.6075-15.0744-16.1803h-5c0 11.2178 8.70299 20.4008 19.7272 21.1682zm-15.0744-16.1803c0-8.958 7.26194-16.22 16.22-16.22v-5c-11.71948 0-21.22 9.5006-21.22 21.22zm16.22-16.22c.3716 0 .7399.0125 1.1045.037l.3347-4.9888c-.476-.032-.9559-.0482-1.4392-.0482zm3.7045-1.8812c1.7224-7.27106 8.2599-12.6787 16.0543-12.6787v-5c-10.1641 0-18.6753 7.05135-20.9196 16.5262zm16.0543-12.6787c9.1117 0 16.4981 7.38643 16.4981 16.4981h5c0-11.87309-9.625-21.4981-21.4981-21.4981zm16.4981 16.4981c0 .9758-.0844 1.9299-.2459 2.8559l4.9257.8587c.2107-1.2083.3202-2.4497.3202-3.7146zm2.8192 5.7117c.9716-.2412 1.9901-.3698 3.0422-.3698v-5c-1.4612 0-2.8841.1788-4.2466.517zm3.0422-.3698c6.9477 0 12.58 5.6323 12.58 12.58h5c0-9.7091-7.8709-17.58-17.58-17.58zm12.58 12.58c0 6.88-5.5233 12.4704-12.3769 12.5784l.0788 4.9994c9.5796-.151 17.2981-7.9628 17.2981-17.5778zm-14.8375 15.0781v.0019h5v-.0019zm2.5-2.4981h-.21v5h.21zm-.2153 0c-.0091 0-.0181 0-.0272 0v5h.0378zm-.0272 0c-.0091 0-.0182 0-.0273 0l-.0105 5h.0378z" fill="#5001d0" mask="url(#a)"></path><path d="m41.1191 29.0461-.6548-1.0648c-.4332.2664-.6618.7687-.5782 1.2703zm1.9923 11.9539v1.25c.3674 0 .7163-.1616.9538-.442s.3396-.651.2792-1.0135zm-10.2222 0-1.233-.2055c-.0604.3625.0417.7331.2792 1.0135s.5863.442.9538.442zm1.9923-11.9536 1.2329.2055c.0837-.5017-.145-1.004-.5783-1.2704zm6.8923 1.0645c2.0607-1.267 3.4392-3.546 3.4392-6.1479h-2.5c0 1.6977-.8969 3.1871-2.2487 4.0183zm2.5706 10.6836-1.9923-11.9539-2.466.411 1.9923 11.9539zm-6.3441 1.4555h5.1111v-2.5h-5.1111zm-5.1111 0h5.1111v-2.5h-5.1111zm.7593-13.4091-1.9923 11.9536 2.466.411 1.9922-11.9536zm-2.8614-4.8779c0 2.6021 1.3788 4.8812 3.4397 6.1482l1.3093-2.1297c-1.352-.8312-2.249-2.3206-2.249-4.0185zm7.213-7.213c-3.9836 0-7.213 3.2294-7.213 7.213h2.5c0-2.6029 2.1101-4.713 4.713-4.713zm7.2129 7.213c0-3.9836-3.2293-7.213-7.2129-7.213v2.5c2.6029 0 4.7129 2.1101 4.7129 4.713z" fill="#6af400"></path></svg> 