<svg fill="none" height="58" viewBox="0 0 59 58" width="59" xmlns="http://www.w3.org/2000/svg"><g stroke-width="2.5"><path d="m50.2765 23.2825 5.4446 1.0603c.6781.1337 1.1653.7164 1.1653 1.4041v6.2852c0 .6877-.4872 1.2704-1.1653 1.4041l-5.4446 1.0602c-1.0889.2101-1.9964.9457-2.4167 1.9772-.4489 1.0795-.3342 2.2448.2866 3.1618l3.1044 4.604c.3821.5635.3056 1.3277-.172 1.8148l-4.4416 4.4417c-.4871.4776-1.2512.5539-1.8148.1719l-4.604-3.1043c-.917-.621-2.0823-.7355-3.114-.3058-1.0793.4394-1.8148 1.3469-2.025 2.4358l-1.0602 5.4446c-.1337.6781-.7164 1.1653-1.4041 1.1653h-6.2852c-.6877 0-1.2704-.4872-1.4041-1.1653l-1.0603-5.4446c-.2101-1.0889-.9456-1.9964-1.9772-2.4166-1.0794-.4489-2.2447-.3344-3.1617.2866l-4.604 3.1043c-.5635.382-1.3277.3057-1.8148-.1719l-4.44166-4.4417c-.47759-.4871-.55401-1.2513-.17192-1.8148l3.10438-4.604c.6209-.917.7355-2.0823.3056-3.114-.4394-1.0793-1.3468-1.8149-2.43567-2.025l-5.44458-1.0602c-.6782-.1337-1.16536-.7164-1.16536-1.4041v-6.2852c0-.6877.48716-1.2704 1.16536-1.4041l5.44458-1.0603c1.08888-.2102 1.99627-.9456 2.41657-1.9772.449-1.0795.3344-2.2448-.2865-3.1617l-3.10438-4.6041c-.3821-.5635-.30567-1.3276.17192-1.8148l4.44166-4.44161c.4871-.47759 1.2513-.55396 1.8148-.17198l4.604 3.10439c.917.6209 2.0823.7355 3.1139.3057 1.0794-.4393 1.8149-1.34685 2.025-2.43578l1.0603-5.44453c.1337-.67815.7164-1.1653 1.4041-1.1653h6.2852c.6877 0 1.2704.48715 1.4041 1.1653l1.0602 5.44453c.2102 1.08894.9457 1.99648 1.9773 2.41668 1.0794.4489 2.2447.3343 3.1617-.2866l4.604-3.10439c.5635-.38199 1.3277-.30561 1.8148.17198l4.4416 4.44161c.4776.4872.554 1.2513.172 1.8148l-3.1044 4.6041c-.6208.9169-.7355 2.0822-.3056 3.1139.4393 1.0794 1.3468 1.8148 2.4357 2.025z" stroke="#5001d0"/><path d="m29.2085 37.4194c-4.6995 0-8.5298-3.8303-8.5298-8.5298 0-4.6994 3.8303-8.5297 8.5298-8.5297s8.5298 3.8302 8.5298 8.5297c0 4.6996-3.8302 8.5298-8.5298 8.5298z" stroke="#6af400"/></g></svg>