<?xml version="1.0" encoding="UTF-8"?> <svg xmlns="http://www.w3.org/2000/svg" fill="none" height="65" viewBox="0 0 65 65" width="65"><path d="m59.1254 56.3866h-4.6042c6.6875-6.1491 10.478-14.7086 10.478-23.8866 0-7.1035-2.2486-13.8463-6.507-19.518-6.2042-8.2538-15.679-12.98334277-25.9941-12.98334277-3.3285 0-6.611.50171177-9.7496 1.48676277-.618.19579-.9637.85349-.7679 1.47149.1958.61797.8535.96369 1.4715.76787 2.9124-.91779 5.9594-1.3797 9.0463-1.3797 9.5695 0 18.3582 4.39309 24.1129 12.05372 3.9465 5.2557 6.0389 11.5117 6.0389 18.0982 0 8.7252-3.6894 16.8623-10.1811 22.5865v-5.3537c0-.6485-.5262-1.1747-1.1748-1.1747-.6485 0-1.1747.5262-1.1747 1.1747v7.8317c0 .6485.5262 1.1747 1.1747 1.1747h7.8317c.6486 0 1.1748-.5262 1.1748-1.1747 0-.6486-.5269-1.1749-1.1754-1.1749z" fill="#5001d0"></path><path d="m5.87172 8.61363h4.60418c-6.68755 6.14907-10.47799825 14.70867-10.47799906 23.88657-.00000062 7.1035 2.24854906 13.8464 6.50700906 19.5181 6.20419 8.2537 15.67899 12.9833 25.99409 12.9833 3.3284 0 6.611-.5017 9.7496-1.4868.618-.1958.9637-.8535.7679-1.4715-.1958-.6179-.8535-.9637-1.4715-.7678-2.9125.9178-5.9594 1.3797-9.0464 1.3797-9.5695 0-18.3582-4.3931-24.11286-12.0537-3.94645-5.2558-6.03892-11.5118-6.03892-18.0982 0-8.7253 3.68942-16.8624 10.18118-22.58654v5.35364c0 .6486.5262 1.1748 1.1747 1.1748.6486 0 1.1748-.5262 1.1748-1.1748v-7.83165c0-.64856-.5262-1.17475-1.1748-1.17475h-7.83163c-.64855 0-1.17475.52619-1.17475 1.17475 0 .64855.52685 1.17488 1.1754 1.17488z" fill="#5001d0"></path><path d="m47.7325 41.8136c.697 1.1162.5331 2.5518-.3971 3.482l-2.0464 2.0464c-.9302.9302-2.3658 1.0941-3.482.3971l-2.1825-1.3662c-.1916-.1222-.4332-.1416-.6248-.05-.4276.2055-.8747.3916-1.3301.5471-.1999.0722-.3554.2554-.4054.4776l-.5831 2.5018c-.2999 1.2856-1.4217 2.1825-2.7434 2.1825h-2.8989c-1.3217 0-2.4518-.8969-2.7434-2.1825l-.5748-2.5018c-.05-.2194-.2055-.4054-.4054-.4776-.4554-.1639-.9024-.3471-1.3301-.5554-.1916-.0916-.4331-.0722-.6247.05l-2.1742 1.3662c-1.1218.7025-2.5602.5414-3.4904-.3971l-2.0465-2.0409c-.9302-.9302-1.094-2.3658-.397-3.4904l1.3578-2.1825c.1222-.1916.1416-.4332.05-.6248-.2055-.4331-.3915-.8802-.547-1.33-.0722-.2-.2555-.3555-.4776-.4054l-2.5018-.5748c-1.2857-.2999-2.1825-1.43-2.1825-2.7434v-2.8989c0-1.3218.8968-2.4519 2.1825-2.7435l2.5018-.5747c.2194-.05.4054-.2055.4776-.4054.1638-.4471.3471-.8969.5553-1.3301.0917-.1916.0722-.4332-.0499-.6248l-1.3662-2.1742c-.7025-1.1217-.5415-2.5517.3971-3.4903l2.0409-2.0409c.9302-.9303 2.3657-1.0941 3.4903-.3971l2.1742 1.3662c.1916.1221.4332.1416.6248.0499.4332-.2054.8802-.3915 1.3301-.5553.1999-.0722.3554-.2555.4054-.4776l.5831-2.5101c.2999-1.2857 1.4217-2.1826 2.7434-2.1826h2.8989c1.3217 0 2.4518.8969 2.7434 2.1826l.5748 2.5018c.05.2193.2055.4054.4054.4776.4554.1638.8969.3471 1.3301.547.1916.0916.4331.0722.6247-.05l2.1825-1.3662c1.1218-.6969 2.5518-.5331 3.4904.3971l2.0465 2.0465c.9385.9302 1.094 2.3657.397 3.4903l-1.3661 2.1742c-.1222.1916-.1416.4332-.05.6248.2055.4332.3915.8802.5553 1.33.0722.2.2555.3555.4776.4055l2.5019.5747c1.2856.2999 2.1825 1.43 2.1825 2.7435v2.8989c0 1.3217-.8969 2.4518-2.1825 2.7434l-2.5019.5748c-.2193.0499-.4054.2054-.4776.4054-.1555.447-.3471.8968-.5553 1.33-.0916.1916-.0722.4332.05.6248zm-1.8077 1.1301-1.3578-2.1825c-.511-.8164-.5748-1.8132-.1694-2.6657.1777-.3693.3332-.7525.4692-1.1385.3194-.8885 1.0663-1.5494 2.0048-1.7632l2.5019-.5748c.3137-.0722.5331-.3471.5331-.6692v-2.8989c0-.3193-.2194-.597-.5331-.6692l-2.5019-.5748c-.9385-.2138-1.6854-.8747-2.0048-1.7632-.136-.3832-.2998-.7664-.4776-1.1385-.4054-.8525-.3415-1.8549.1694-2.674l1.3662-2.1742c.1694-.2693.1277-.6247-.1-.8524l-2.0464-2.0465c-.2277-.2277-.5748-.2693-.8525-.0999l-2.1825 1.3661c-.8163.511-1.8132.5693-2.6656.1694-.3693-.1777-.7525-.3332-1.1385-.4692-.8886-.3194-1.5439-1.0663-1.7633-2.0048l-.5747-2.5019c-.0722-.3137-.3471-.5331-.6692-.5331h-2.8989c-.3194 0-.597.2194-.6692.5331l-.5831 2.5102c-.2138.9385-.8747 1.6855-1.7633 2.0048-.3832.136-.7663.2999-1.1385.4692-.8524.4054-1.8549.3416-2.674-.1693l-2.1741-1.3662c-.2694-.1694-.6248-.1277-.8525.1l-2.0409 2.0409c-.2277.2277-.2693.5747-.1.8524l1.3662 2.1742c.5109.8163.5748 1.8188.1694 2.674-.1777.3693-.3332.7525-.4776 1.1385-.3193.8885-1.0663 1.5438-2.0048 1.7632l-2.5018.5748c-.3138.0722-.5331.3471-.5331.6692v2.8989c0 .3193.2193.597.5331.6692l2.5018.5748c.9385.2138 1.6855.8746 2.0048 1.7632.1361.3832.2999.7608.4693 1.1385.4054.8524.3415 1.8493-.1694 2.6657l-1.3579 2.1825c-.1693.2693-.1277.6247.1.8524l2.0464 2.0409c.2277.2277.5748.2694.8525.1l2.1742-1.3662c.4609-.2916.9802-.4332 1.4939-.4332.4054 0 .8025.0861 1.1801.2638.3693.1777.747.3332 1.1385.4776.8886.3193 1.5439 1.0663 1.7633 2.0048l.5747 2.5018c.0722.3138.3471.5332.6692.5332h2.8989c.3194 0 .597-.2194.6692-.5332l.5831-2.5018c.2138-.9385.8747-1.6855 1.7633-2.0048.3832-.1361.7663-.2999 1.1385-.4693.8524-.4054 1.8493-.3415 2.6656.1694l2.1825 1.3662c.2694.1694.6193.1277.8469-.1l2.0465-2.0464c.2277-.2333.2721-.5887.0999-.858z" fill="#6af400"></path><path d="m32.4911 40.6748c4.5066 0 8.1747-3.668 8.1747-8.1747 0-4.5066-3.6681-8.1747-8.1747-8.1747s-8.1747 3.6681-8.1747 8.1747c0 4.5067 3.6681 8.1747 8.1747 8.1747z" stroke="#5001d0" stroke-width="2.5"></path></svg> 