<?xml version="1.0" encoding="UTF-8"?> <svg xmlns="http://www.w3.org/2000/svg" height="1131" viewBox="0 0 1728 1131" width="1728"><g fill="none" fill-rule="evenodd" stroke="#b6c5cd" stroke-opacity=".5" stroke-width=".38" transform="translate(-159 .0004)"><path d="m0 1131.18964h2011v-1131.18963h-2011z"></path><path d="m0 1131.18964h2011v-1131.18963h-2011z"></path><path d="m54.307 1060.80964h1760.753v-990.4243h-1760.753z"></path><path d="m108.6161 990.42364h1510.5139v-849.661h-1510.5139z"></path><path d="m162.91528 920.04564h1260.26472v-708.898h-1260.26472z"></path><path d="m217.2146 849.66064h1010.0254v-568.143h-1010.0254z"></path><path d="m271.524 779.28364h759.785v-427.381h-759.785z"></path><path d="m325.831 708.90564h509.54v-286.618h-509.54z"></path><path d="m380.122 638.52064h259.304v-145.855h-259.304z"></path><path d="m380.131 492.66564-380.123-492.66564"></path><path d="m254.8937 0 190.0613 492.66564"></path><path d="m509.777 0v492.66564"></path><path d="m2011 0-1371.574 492.66564"></path><path d="m1260.39 0-685.788 492.66564"></path><path d="m509.777 0v492.66564"></path><path d="m380.131 565.59664h-380.123"></path><path d="m380.131 529.13064-380.123-246.332"></path><path d="m380.131 492.66564-380.123-492.66564"></path><path d="m380.131 638.52064-380.123 492.669"></path><path d="m380.131 602.05464-380.123 246.333"></path><path d="m380.131 565.59664h-380.123"></path><path d="m509.777 638.52064v492.669"></path><path d="m444.955 638.52064-190.0613 492.669"></path><path d="m380.131 638.52064-380.123 492.669"></path><path d="m639.426 638.52064 1371.574 492.669"></path><path d="m574.602 638.52064 685.788 492.669"></path><path d="m509.777 638.52064v492.669"></path><path d="m639.426 565.59664h1371.574"></path><path d="m639.426 602.05464 1371.574 246.333"></path><path d="m639.426 638.52064 1371.574 492.669"></path><path d="m639.426 565.59664h1371.574"></path><path d="m2011 282.79864-1371.574 246.332"></path><path d="m2011 0-1371.574 492.66564"></path></g></svg> 