<?xml version="1.0" encoding="UTF-8"?> <svg xmlns="http://www.w3.org/2000/svg" height="1060" viewBox="0 0 1728 1060" width="1728"><g style="stroke:#fff;stroke-width:.5;fill:none;fill-rule:evenodd;opacity:.5;stroke-opacity:.7" transform="translate(-42 -71.6435)"><path d="m1811.44 1132.28352h-1811.44v-1132.28352h1811.44zm-1811.1775-.29h1810.9275v-1131.710448h-1810.9275z"></path><path d="m1811.32.146789h-1811.1833v1131.996731h1811.1833z"></path><path d="m1698.63 70.579224h-1585.8068v991.134296h1585.8068z"></path><path d="m1585.93 141.001524h-1360.421v850.274h1360.421z"></path><path d="m1473.25 211.433524h-1135.055v709.409h1135.055z"></path><path d="m1360.56 281.866524h-909.667v568.544h909.667z"></path><path d="m1247.88 352.298524h-684.301v427.69h684.301z"></path><path d="m1135.18 422.730524h-458.914v286.826h458.914z"></path><path d="m1022.502 493.163524h-233.54v145.96h233.54z"></path><path d="m.1992 1132.26352-.126-.25 788.8148-493.015996.137.252z"></path><path d="m788.888 493.289524-788.8148-493.016939.126-.25162 788.8258 493.016559z"></path><path d="m1811.25 1132.26352-788.821-493.013996.126-.252 788.825 493.015996z"></path><path d="m1022.555 493.289524-.126-.252 788.821-493.016559.13.25162z"></path><path d="m905.858.146789h-.262v493.016735h.262z"></path><path d="m905.858 639.123524h-.262v493.019996h.262z"></path><path d="m1811.32 565.996524h-788.828v.294h788.828z"></path><path d="m788.962 565.996524h-788.8253v.294h788.8253z"></path><path d="m788.92 526.094524-788.8253-239.248.0735-.273 788.8258 239.248z"></path><path d="m.1682 845.713524-.0735-.283 788.8253-239.238.074.273z"></path><path d="m1022.524 526.094524-.063-.273 788.829-239.248.06.273z"></path><path d="m1811.29 845.713524-788.829-239.248.063-.273 788.826 239.238z"></path><path d="m964.542 493.257524-.199-.188 364.907-493.017095.19.17823z"></path><path d="m846.911 493.257524-364.913-493.026865.199-.17823 364.914 493.017095z"></path><path d="m1329.25 1132.23352-364.907-493.015996.199-.188 364.898 493.013996z"></path><path d="m482.197 1132.23352-.199-.19 364.913-493.013996.2.188z"></path></g></svg> 