<?xml version="1.0" encoding="UTF-8"?> <svg xmlns="http://www.w3.org/2000/svg" fill="none" height="55" viewBox="0 0 52 55" width="52"><g stroke-width="2.5"><path d="m1.25 1.25h32.5v43.5h-32.5z" stroke="#6af400"></path><circle cx="16" cy="16" fill="#030921" r="16" stroke="#5001d0" transform="matrix(1 0 0 -1 18 53)"></circle><path d="m1.25 1.25h32.5v43.5h-32.5z" stroke="#6af400"></path><path d="m50 37c0 3.5221-1.1622 6.9459-3.3063 9.7402-2.1442 2.7943-5.1505 4.803-8.5526 5.7146s-7.01.6751-10.264-.6727c-3.2541-1.3479-5.9724-3.7318-7.7335-6.7821s-2.4665-6.5964-2.0067-10.0884c.4597-3.492 2.0589-6.7348 4.5494-9.2253s5.7333-4.0897 9.2253-4.5494 7.0381.2456 10.0884 2.0067l-8 13.8564z" fill="#030921" stroke="#5001d0"></path><g stroke="#6af400"><path d="m7 7.75h20"></path><path d="m7 13.75h20"></path><path d="m7 19.75h12"></path></g></g></svg> 