<?xml version="1.0" encoding="UTF-8"?> <svg xmlns="http://www.w3.org/2000/svg" fill="none" height="84" viewBox="0 0 45 84" width="45"><path d="m19.1353 38.9619 1.865-1.865v15.3438c0 .6782.5934 1.2716 1.2716 1.2716s1.2716-.5934 1.2716-1.2716v-15.3438l1.865 1.865c.5086.5086 1.2716.5086 1.7802 0 .2543-.2543.3391-.5934.3391-.9325s-.0848-.6782-.3391-.9325l-4.9168-4.9168-4.9168 4.9168c-.5086.5086-.5086 1.2716 0 1.7802s1.3564.5934 1.7802.0848z" fill="#6af400"></path><path d="m17.3552 5.47615c-.5087.50864-.5087 1.27159 0 1.78022.5086.50864 1.2716.50864 1.7802 0l1.865-1.86499v6.78182c0 3.9843-3.2214 7.2056-7.2057 7.2056-5.34064 0-9.7488 4.3234-9.7488 9.7489v2.3736c0 .6782.59341 1.2716 1.27159 1.2716.67817 0 1.27158-.5934 1.27158-1.2716v-2.3736c0-3.9843 3.22135-7.2057 7.20563-7.2057 2.8823 0 5.4255-1.2716 7.2057-3.2213v1.865c0 5.3406 4.3234 9.7488 9.7488 9.7488 3.9843 0 7.2057 3.2213 7.2057 7.2056v2.628c0 .6782.5934 1.2716 1.2716 1.2716s1.2716-.5934 1.2716-1.2716v-2.628c0-5.3406-4.3234-9.7488-9.7489-9.7488-3.9843 0-7.2056-3.2213-7.2056-7.2056v-8.3925-6.78182l1.865 1.86499c.5086.50864 1.2715.50864 1.7802 0 .2543-.25431.3391-.5934.3391-.9325 0-.33908-.0848-.67817-.3391-.93249l-4.9168-4.916806z" fill="#5001d0"></path><path d="m23.5439 69.9039v-4.4082c0-5.3407-4.3234-9.7488-9.7488-9.7488-3.98435 0-7.2057-3.2214-7.2057-7.2057v-5.2559l1.86499 1.865c.50863.5087 1.27159.5087 1.78021 0 .2543-.2543.3391-.5934.3391-.9325s-.0848-.6782-.3391-.9325l-4.91679-4.9168-4.916804 4.9168c-.508635.5087-.508635 1.2716 0 1.7803.508635.5086 1.271584.5086 1.780224 0l1.86499-1.865v5.2558c0 5.3407 4.3234 9.7489 9.74888 9.7489 3.9843 0 7.2056 3.2213 7.2056 7.2056v4.4082c0 .6782.5934 1.2716 1.2716 1.2716s1.2716-.5086 1.2716-1.1868z" fill="#5001d0"></path><path d="m34.3103 53.3727c.5086.5087 1.2715.5087 1.7802 0l1.865-1.865v13.9875c0 3.9843-3.2214 7.2056-7.2057 7.2056-5.3407 0-9.7488 4.3234-9.7488 9.7489v.2543c0 .6782.5934 1.2716 1.2716 1.2716.6781 0 1.2716-.5934 1.2716-1.2716v-.2543c0-3.9843 3.2213-7.2057 7.2056-7.2057 5.3407 0 9.7488-4.3234 9.7488-9.7488v-13.9875l1.865 1.865c.5087.5087 1.2716.5087 1.7803 0 .2543-.2543.3391-.5934.3391-.9325s-.0848-.6781-.3391-.9325l-4.9168-4.9168-4.9168 5.0016c-.5087.5086-.5087 1.2716 0 1.7802z" fill="#6af400"></path></svg> 