<?xml version="1.0" encoding="UTF-8"?>
<svg width="60px" height="54px" viewBox="0 0 60 54" version="1.1" xmlns="http://www.w3.org/2000/svg" xmlns:xlink="http://www.w3.org/1999/xlink">
    <title>heart-with-check-icon</title>
    <g id="Page-1" stroke="none" stroke-width="1" fill="none" fill-rule="evenodd">
        <g id="heart-with-check-icon" transform="translate(2, 2)">
            <g id="heart-svgrepo-com" stroke="#5001D0" stroke-width="2.5">
                <path d="M28.0000256,6.16429877 C22.4018869,-0.401803058 13.0472957,-2.43101289 6.03316455,3.58156275 C-0.980997733,9.59413839 -1.96849646,19.6467851 3.53976216,26.757959 C8.11950877,32.6702123 21.9793976,45.1400507 26.5219353,49.1761139 C27.0299802,49.627627 27.2841583,49.8533835 27.5806474,49.9419953 C27.839181,50.0193349 28.1222924,50.0193349 28.3811371,49.9419953 C28.6776263,49.8533835 28.9314932,49.627627 29.4398492,49.1761139 C33.9823869,45.1400507 47.8420891,32.6702123 52.4219601,26.757959 C57.9301877,19.6467851 57.0631202,9.53088899 49.9284022,3.58156275 C42.7936842,-2.36776349 33.5981643,-0.401803058 28.0000256,6.16429877 Z" id="Path"></path>
            </g>
            <polygon id="Path" stroke="#030921" fill="#6AF400" fill-rule="nonzero" points="25.1293 24.4865 25.4717 24.7897 25.8041 24.4756 38.0213 12.9333 40.5519 15.6113 25.5514 29.7835 16.4364 21.7111 18.8812 18.9531"></polygon>
        </g>
    </g>
</svg>