<?xml version="1.0" encoding="UTF-8"?> <svg xmlns="http://www.w3.org/2000/svg" height="1131" viewBox="0 0 1728 1131" width="1728"><g style="stroke:#fff;stroke-width:.5;fill:none;fill-rule:evenodd;opacity:.5;stroke-opacity:.7" transform="translate(-41 -.6436)"><path d="m1809.44 1132.28356h-1809.44v-1132.28356h1809.44zm-1809.1778-.29h1808.9278v-1131.710488h-1808.9278z"></path><path d="m1809.32.146729h-1809.1833v1131.996831h1809.1833z"></path><path d="m1696.76 70.579355h-1584.0608v991.134205h1584.0608z"></path><path d="m1584.18 141.001555h-1358.92v850.274h1358.92z"></path><path d="m1471.62 211.433555h-1133.798v709.409h1133.798z"></path><path d="m1359.06 281.866555h-908.665v568.544h908.665z"></path><path d="m1246.5 352.298555h-683.543v427.69h683.543z"></path><path d="m1133.93 422.730555h-458.41v286.825h458.41z"></path><path d="m1021.374 493.163555h-233.282v145.96h233.282z"></path><path d="m.2001 1132.26355-.1259-.25 787.9448-493.015995.136.252z"></path><path d="m788.019 493.289555-787.9448-493.016939.1259-.25162 787.9549 493.016559z"></path><path d="m1809.26 1132.26355-787.959-493.013995.126-.252 787.953 493.015995z"></path><path d="m1021.427 493.289555-.126-.252 787.959-493.016559.12.25162z"></path><path d="m904.858.146729h-.262v493.016826h.262z"></path><path d="m904.858 639.123555h-.262v493.020005h.262z"></path><path d="m1809.32 565.996555h-787.957v.294h787.957z"></path><path d="m788.092 565.996555h-787.9553v.294h787.9553z"></path><path d="m788.049 526.094555-787.9552-239.248.0734-.273 787.9548 239.248z"></path><path d="m.1672 845.713555-.0734-.283 787.9552-239.238.073.273z"></path><path d="m1021.395 526.094555-.063-.273 787.958-239.248.06.273z"></path><path d="m1809.29 845.713555-787.958-239.248.063-.273 787.955 239.238z"></path><path d="m963.479 493.257555-.2-.188 364.501-493.017064.2.17823z"></path><path d="m845.977 493.257555-364.51-493.026834.199-.17823 364.51 493.017064z"></path><path d="m1327.78 1132.23355-364.501-493.015995.2-.188 364.501 493.014005z"></path><path d="m481.666 1132.23355-.199-.18999 364.51-493.014005.199.188z"></path></g></svg> 