<?xml version="1.0" encoding="UTF-8"?> <svg xmlns="http://www.w3.org/2000/svg" height="565" viewBox="0 0 1728 565" width="1728"><g fill="none" fill-rule="evenodd" stroke="#b6c5cd" stroke-opacity=".5" stroke-width=".38" transform="translate(-191 -290.386)"><path d="m2011 1564.196h-2011v-1564.196h2011z"></path><path d="m2011 1564.196h-2011v-1564.196h2011z"></path><path d="m1956.69 1466.876h-1760.75299v-1369.548h1760.75299z"></path><path d="m1902.38 1369.546h-1510.506v-1174.9007h1510.506z"></path><path d="m1848.08 1272.232h-1260.261v-980.25878h1260.261z"></path><path d="m1793.78 1174.904h-1010.025v-785.624h1010.025z"></path><path d="m1739.48 1077.587h-759.788v-590.979h759.788z"></path><path d="m1685.17 980.269h-509.541v-396.333h509.541z"></path><path d="m1630.88 882.941h-259.31v-201.688h259.31z"></path><path d="m1630.87 681.253 380.12-681.253"></path><path d="m1756.11 0-190.06 681.253"></path><path d="m1501.22 0v681.253"></path><path d="m0 0 1371.57 681.253"></path><path d="m750.611 0 685.789 681.253"></path><path d="m1501.22 0v681.253"></path><path d="m1630.87 782.103h380.12"></path><path d="m1630.87 731.678 380.12-340.627"></path><path d="m1630.87 681.253 380.12-681.253"></path><path d="m1630.87 832.517 380.12 340.626"></path><path d="m1630.87 782.103h380.12"></path><path d="m1371.57 782.103h-1371.57"></path><path d="m1371.57 832.517-1371.57 340.626"></path><path d="m1371.57 782.103h-1371.57"></path><path d="m0 391.051 1371.57 340.627"></path><path d="m0 0 1371.57 681.253"></path></g></svg> 