<?xml version="1.0" encoding="UTF-8"?> <svg xmlns="http://www.w3.org/2000/svg" fill="none" height="84" viewBox="0 0 85 84" width="85"><path d="m55.7805 38.9207 3.4756.6768c.4329.0854.7439.4574.7439.8964v4.0122c0 .439-.311.811-.7439.8964l-3.4756.6768c-.6951.1341-1.2744.6036-1.5427 1.2621-.2866.6891-.2134 1.433.1829 2.0184l1.9817 2.939c.244.3597.1952.8475-.1097 1.1585l-2.8354 2.8354c-.3109.3049-.7987.3536-1.1585.1098l-2.939-1.9817c-.5854-.3965-1.3293-.4695-1.9878-.1952-.6891.2805-1.1586.8598-1.2927 1.5549l-.6769 3.4756c-.0853.4329-.4573.7439-.8963.7439h-4.0122c-.439 0-.811-.311-.8963-.7439l-.6769-3.4756c-.1341-.6951-.6036-1.2744-1.2622-1.5427-.689-.2865-1.4329-.2135-2.0183.183l-2.939 1.9817c-.3597.2438-.8475.1951-1.1585-.1098l-2.8354-2.8354c-.3049-.311-.3536-.7988-.1097-1.1585l1.9817-2.939c.3963-.5854.4695-1.3293.1951-1.9878-.2805-.6891-.8598-1.1586-1.5549-1.2927l-3.4756-.6768c-.4329-.0854-.7439-.4574-.7439-.8964v-4.0122c0-.439.311-.811.7439-.8964l3.4756-.6768c.6951-.1342 1.2744-.6036 1.5427-1.2621.2866-.6891.2134-1.433-.1829-2.0184l-1.9817-2.939c-.2439-.3598-.1952-.8475.1097-1.1585l2.8354-2.8354c.311-.3049.7988-.3536 1.1585-.1098l2.939 1.9817c.5854.3964 1.3293.4695 1.9879.1952.689-.2805 1.1585-.8598 1.2926-1.5549l.6769-3.4756c.0853-.4329.4573-.7439.8963-.7439h4.0122c.439 0 .811.311.8963.7439l.6769 3.4756c.1341.6951.6036 1.2744 1.2622 1.5427.689.2865 1.4329.2134 2.0183-.183l2.939-1.9817c.3598-.2438.8476-.1951 1.1585.1098l2.8354 2.8354c.3049.311.3536.7987.1097 1.1585l-1.9817 2.939c-.3963.5854-.4695 1.3293-.1951 1.9878.2805.6891.8598 1.1585 1.5549 1.2927z" stroke="#5001d0" stroke-width="2.5"></path><path d="m42.5 48c-3.0302 0-5.5-2.4698-5.5-5.5s2.4698-5.5 5.5-5.5 5.5 2.4697 5.5 5.5-2.4697 5.5-5.5 5.5z" stroke="#6af400" stroke-width="2.5"></path><g fill="#6af400"><path d="m43.2071.292893c-.3905-.3905241-1.0237-.3905241-1.4142 0l-6.364 6.363957c-.3905.39053-.3905 1.02369 0 1.41422.3906.39052 1.0237.39052 1.4142 0l5.6569-5.65686 5.6569 5.65686c.3905.39052 1.0236.39052 1.4142 0 .3905-.39053.3905-1.02369 0-1.41422zm-1.7071.707107v16h2v-16z"></path><path d="m41.7929 83.7071c.3905.3905 1.0237.3905 1.4142 0l6.364-6.364c.3905-.3905.3905-1.0236 0-1.4142-.3906-.3905-1.0237-.3905-1.4142 0l-5.6569 5.6569-5.6569-5.6569c-.3905-.3905-1.0236-.3905-1.4142 0-.3905.3906-.3905 1.0237 0 1.4142zm1.7071-.7071v-16h-2v16z"></path><path d="m84.2071 42.7071c.3905-.3905.3905-1.0237 0-1.4142l-6.364-6.364c-.3905-.3905-1.0236-.3905-1.4142 0-.3905.3906-.3905 1.0237 0 1.4142l5.6569 5.6569-5.6569 5.6569c-.3905.3905-.3905 1.0236 0 1.4142.3906.3905 1.0237.3905 1.4142 0zm-.7071-1.7071h-16v2h16z"></path><path d="m.792893 41.2929c-.390524.3905-.390524 1.0237 0 1.4142l6.363957 6.364c.39053.3905 1.02369.3905 1.41422 0 .39052-.3906.39052-1.0237 0-1.4142l-5.65686-5.6569 5.65686-5.6569c.39052-.3905.39052-1.0236 0-1.4142-.39053-.3905-1.02369-.3905-1.41422 0zm.707107 1.7071h16v-2h-16z"></path></g></svg> 