<?xml version="1.0" encoding="UTF-8"?> <svg xmlns="http://www.w3.org/2000/svg" fill="none" height="64" viewBox="0 0 64 64" width="64"><g clip-rule="evenodd" fill-rule="evenodd"><path d="m20.3108 46.9989c-.5577.1212-1.0743.4-1.4834.8092-.5623.5645-.88 1.3279-.88 2.1256v4.7497c0 .7954.3177 1.5611.88 2.1234.5646.5646 1.328.88 2.1234.88h1.2526v1.4468c0 1.2914.512 2.528 1.4239 3.4423.9143.9119 2.1508 1.4239 3.44 1.4239h9.481c1.2914 0 2.528-.512 3.44-1.4239.9119-.9143 1.4262-2.1509 1.4262-3.4423v-1.4468h1.232c.7954 0 1.5589-.3154 2.1234-.88.5623-.5623.88-1.328.88-2.1234v-4.7497c0-.7977-.3177-1.5611-.88-2.1256-.4068-.4046-.9165-.6835-1.4674-.8069.6857-2.2308 1.7554-4.3405 3.1817-6.2262l.0023-.0046c2.2902-3.0605 3.6479-6.8593 3.6479-10.9713 0-10.121-8.2147-18.3357-18.3357-18.3357-10.1211 0-18.3358 8.2147-18.3358 18.3357 0 4.1143 1.3577 7.9154 3.6639 10.9668 1.4263 1.8879 2.4983 3.9976 3.184 6.233zm18.8181 10.6879v1.4468c0 .6857-.272 1.3417-.7566 1.824-.4846.4846-1.1406.7566-1.824.7566h-9.481c-.6834 0-1.3394-.272-1.824-.7566-.4823-.4823-.7543-1.1383-.7543-1.824v-1.4468zm4.2353-7.7531v4.7497c0 .1897-.0754.3726-.2103.5074-.1348.1349-.3177.2103-.5074.2103h-21.6957c-.1897 0-.3726-.0754-.5074-.2103-.1349-.1348-.2103-.3177-.2103-.5074v-4.7497c0-.192.0754-.3748.2103-.5097.1348-.1325.3177-.2103.5074-.2103h21.6957c.1897 0 .3726.0778.5074.2103.1349.1349.2103.3177.2103.5097zm-2.4205-3.0056h-18.2718c-.7497-2.7086-2.0068-5.2708-3.7233-7.5405-2.0137-2.6674-3.2-5.9908-3.2-9.5885 0-8.8593 7.1907-16.05 16.0501-16.05 8.8593 0 16.05 7.1907 16.05 16.05 0 3.6-1.1862 6.9234-3.1908 9.6022-1.7119 2.2651-2.9668 4.8228-3.7142 7.5268z" fill="#5001d0"></path><g fill="#6af400"><path d="m35.4499 18.4919c-.096-.4297-.4297-.7657-.8594-.864-1.8354-.4205-3.7416-.4205-5.5771 0-.4297.0983-.7634.4343-.8593.864l-.5578 2.4937c-.4594.2217-.9028.4754-1.3234.7657l-2.4388-.7657c-.4206-.1303-.88-.0091-1.1794.3131-1.2823 1.3783-2.2331 3.0286-2.7886 4.8297-.128.4206-.0045.8777.32 1.1771l1.8812 1.728c-.0389.5097-.0389 1.0217 0 1.5314l-1.8812 1.728c-.3245.2994-.448.7565-.32 1.1771.5555 1.7988 1.5063 3.4514 2.7886 4.8297.2994.3222.7588.4434 1.1794.3108l2.4388-.7634c.4206.288.864.544 1.3257.7657l.5555 2.4937c.0959.4297.4296.7657.8593.864 1.8355.4205 3.7417.4205 5.5771 0 .4297-.0983.7634-.4343.8594-.864l.5577-2.496c.4595-.2194.9029-.4754 1.3235-.7634l2.4388.7634c.4205.1326.88.0114 1.1794-.3108 1.2823-1.3783 2.2331-3.0309 2.7885-4.8297.128-.4206.0046-.8777-.32-1.1771l-1.8811-1.7303c.0389-.5074.0389-1.0194 0-1.5291l1.8811-1.728c.3246-.2994.448-.7565.32-1.1771-.5554-1.8011-1.5062-3.4514-2.7885-4.8297-.2994-.3222-.7589-.4434-1.1794-.3131l-2.4388.7657c-.4206-.2903-.864-.5463-1.3257-.7657zm-2.0685 1.2297.5211 2.3268c.0823.368.3406.672.688.8115.656.2628 1.2709.6171 1.8263 1.0537.2971.2331.688.304 1.0468.192l2.2766-.7132c.6651.8229 1.1977 1.7463 1.5794 2.736l-1.7554 1.6137c-.2766.256-.4115.6308-.3589 1.0034.1006.6994.1006 1.408 0 2.1074-.0526.3726.0823.7474.3589 1.0011l1.7554 1.616c-.3817.9874-.9143 1.9108-1.5794 2.736l-2.2766-.7132c-.3588-.112-.7497-.0411-1.0468.192-.5554.4343-1.1703.7909-1.8263 1.0537-.3474.1395-.6057.4435-.688.8115l-.5211 2.3268c-1.0469.1645-2.112.1645-3.1588 0l-.5212-2.3268c-.0823-.368-.3405-.672-.688-.8115-.6559-.2628-1.2708-.6194-1.8262-1.0537-.2971-.2331-.688-.304-1.0469-.192l-2.2765.7132c-.6651-.8252-1.1977-1.7486-1.5794-2.736l1.7554-1.616c.2766-.2537.4114-.6285.3589-1.0011-.1006-.6994-.1006-1.408 0-2.1074.0525-.3726-.0823-.7474-.3589-1.0034l-1.7554-1.6137c.3817-.9897.9143-1.9131 1.5794-2.736l2.2765.7132c.3589.112.7498.0411 1.0469-.192.5554-.4366 1.1703-.7909 1.8262-1.0537.3475-.1395.6057-.4435.688-.8115l.5212-2.3268c1.0468-.1646 2.1119-.1646 3.1588 0zm-1.5794 4.8502c-2.8845 0-5.2274 2.3429-5.2274 5.2274s2.3429 5.2274 5.2274 5.2274 5.2274-2.3429 5.2274-5.2274-2.3429-5.2274-5.2274-5.2274zm0 2.2857c1.6228 0 2.9417 1.3189 2.9417 2.9417s-1.3189 2.9417-2.9417 2.9417-2.9417-1.3189-2.9417-2.9417 1.3189-2.9417 2.9417-2.9417z" stroke="#030921" stroke-width=".5"></path><path d="m32.9518 6.87492v-5.73108c0-.63042-.5101-1.14335172-1.1433-1.14335172-.6305 0-1.1405.51293172-1.1405 1.14335172v5.73108c0 .63042.51 1.14335 1.1405 1.14335.6332 0 1.1433-.51293 1.1433-1.14335z"></path><path d="m14.5774 12.3998-4.0524-4.05244c-.4458-.44577-1.1692-.44779-1.61699.00001-.44578.44577-.44375 1.16914.00202 1.61491l4.05247 4.05252c.4458.4457 1.1692.4478 1.6149.002.4478-.4478.4458-1.1712 0-1.617z"></path><path d="m6.89396 28.6563h-5.73108c-.630417 0-1.1433488.5101-1.1433488 1.1434 0 .6304.5129318 1.1405 1.1433488 1.1405h5.73108c.63042 0 1.14335-.5101 1.14335-1.1405 0-.6333-.51293-1.1434-1.14335-1.1434z"></path><path d="m12.958 45.5837-4.05253 4.0525c-.44578.4458-.4478 1.1691 0 1.6169.44578.4458 1.16913.4438 1.61493-.002l4.0525-4.0525c.4457-.4458.4478-1.1691.002-1.6149-.4478-.4478-1.1712-.4458-1.6169 0z"></path><path d="m50.6351 14.0148 4.0525-4.05252c.4458-.44577.4478-1.16914.0021-1.61491-.4478-.4478-1.1712-.44578-1.617-.00001l-4.0525 4.05244c-.4458.4458-.4478 1.1692 0 1.617.4458.4458 1.1692.4437 1.6149-.002z"></path><path d="m56.7037 30.9402h5.7311c.6304 0 1.1433-.5101 1.1433-1.1405 0-.6333-.5129-1.1434-1.1433-1.1434h-5.7311c-.6304 0-1.1434.5101-1.1434 1.1434 0 .6304.513 1.1405 1.1434 1.1405z"></path><path d="m49.0248 47.1986 4.0525 4.0525c.4457.4458 1.1691.4478 1.6149.002.4478-.4478.4458-1.1711 0-1.6169l-4.0525-4.0525c-.4458-.4458-1.1691-.4478-1.6169 0-.4458.4458-.4438 1.1691.002 1.6149z"></path></g></g></svg> 