<?xml version="1.0" encoding="UTF-8"?> <svg xmlns="http://www.w3.org/2000/svg" xmlns:xlink="http://www.w3.org/1999/xlink" width="2013px" height="1129px" viewBox="0 0 2013 1129" version="1.1"><title>our-vision-grid-lines</title><g id="Page-1" stroke="none" stroke-width="1" fill="none" fill-rule="evenodd" stroke-opacity="0.5"><g id="our-vision-grid-lines" transform="translate(1, -1)" stroke="#B6C5CD" stroke-width="0.38"><polygon id="Path" points="2011 0 0 0 0 1131.19 2011 1131.19"></polygon><polygon id="Path" points="2011 0 0 0 0 1131.19 2011 1131.19"></polygon><polygon id="Path" points="1956.69 70.3774 195.937 70.3774 195.937 1060.8 1956.69 1060.8"></polygon><polygon id="Path" points="1902.38 140.763 391.874 140.763 391.874 990.424 1902.38 990.424"></polygon><polygon id="Path" points="1848.08 211.14 587.818 211.14 587.818 920.038 1848.08 920.038"></polygon><polygon id="Path" points="1793.78 281.525 783.755 281.525 783.755 849.669 1793.78 849.669"></polygon><polygon id="Path" points="1739.48 351.903 979.692 351.903 979.692 779.284 1739.48 779.284"></polygon><polygon id="Path" points="1685.17 422.28 1175.629 422.28 1175.629 708.898 1685.17 708.898"></polygon><polygon id="Path" points="1630.88 492.665 1371.57 492.665 1371.57 638.521 1630.88 638.521"></polygon><line x1="1630.87" y1="638.521" x2="2010.99" y2="1131.19" id="Path"></line><line x1="1756.11" y1="1131.19" x2="1566.05" y2="638.521" id="Path"></line><line x1="1501.22" y1="1131.19" x2="1501.22" y2="638.521" id="Path"></line><line x1="0" y1="1131.19" x2="1371.57" y2="638.521" id="Path"></line><line x1="750.611" y1="1131.19" x2="1436.4" y2="638.521" id="Path"></line><line x1="1501.22" y1="1131.19" x2="1501.22" y2="638.521" id="Path"></line><line x1="1630.87" y1="565.589" x2="2010.99" y2="565.589" id="Path"></line><line x1="1630.87" y1="602.055" x2="2010.99" y2="848.388" id="Path"></line><line x1="1630.87" y1="638.521" x2="2010.99" y2="1131.19" id="Path"></line><line x1="1630.87" y1="492.665" x2="2010.99" y2="0" id="Path"></line><line x1="1630.87" y1="529.131" x2="2010.99" y2="282.799" id="Path"></line><line x1="1630.87" y1="565.589" x2="2010.99" y2="565.589" id="Path"></line><line x1="1501.22" y1="492.665" x2="1501.22" y2="0" id="Path"></line><line x1="1566.05" y1="492.665" x2="1756.11" y2="0" id="Path"></line><line x1="1630.87" y1="492.665" x2="2010.99" y2="0" id="Path"></line><line x1="1371.57" y1="492.665" x2="0" y2="0" id="Path"></line><line x1="1436.4" y1="492.665" x2="750.611" y2="0" id="Path"></line><line x1="1501.22" y1="492.665" x2="1501.22" y2="0" id="Path"></line><line x1="1371.57" y1="565.589" x2="0" y2="565.589" id="Path"></line><line x1="1371.57" y1="529.131" x2="0" y2="282.799" id="Path"></line><line x1="1371.57" y1="492.665" x2="0" y2="0" id="Path"></line><line x1="1371.57" y1="565.589" x2="0" y2="565.589" id="Path"></line><line x1="0" y1="848.388" x2="1371.57" y2="602.055" id="Path"></line><line x1="0" y1="1131.19" x2="1371.57" y2="638.521" id="Path"></line></g></g></svg> 