<?xml version="1.0" encoding="UTF-8"?> <svg xmlns="http://www.w3.org/2000/svg" height="61" viewBox="0 0 68 61" width="68"><g fill="none" fill-rule="evenodd" stroke-width="2"><path d="m34.5 2.25955146 3.4259291 6.94169049c.291324.59028695.8544552.99942565 1.5058755 1.09408265l7.6606103 1.1131518-5.5432697 5.4033525c-.4713722.4594743-.6864692 1.1214747-.5751933 1.7702628l1.3085885 7.6296562-6.8518581-3.602235c-.5826481-.3063162-1.2787165-.3063162-1.8613646 0l-6.8518581 3.602235 1.3085885-7.6296562c.1112759-.6487881-.1038211-1.3107885-.5751933-1.7702628l-5.5432697-5.4033525 7.6606103-1.1131518c.6514203-.094657 1.2145515-.5037957 1.5058755-1.09408265z" stroke="#6af400"></path><g stroke="#5001d0"><path d="m52.5 32.2595515 3.4259291 6.9416905c.291324.5902869.8544552.9994256 1.5058755 1.0940826l7.6606103 1.1131518-5.5432697 5.4033525c-.4713722.4594743-.6864692 1.1214747-.5751933 1.7702628l1.3085885 7.6296562-6.8518581-3.602235c-.5826481-.3063162-1.2787165-.3063162-1.8613646 0l-6.8518581 3.602235 1.3085885-7.6296562c.1112759-.6487881-.1038211-1.3107885-.5751933-1.7702628l-5.5432697-5.4033525 7.6606103-1.1131518c.6514203-.094657 1.2145515-.5037957 1.5058755-1.0940826z"></path><path d="m15.5 32.2595515 3.4259291 6.9416905c.291324.5902869.8544552.9994256 1.5058755 1.0940826l7.6606103 1.1131518-5.5432697 5.4033525c-.4713722.4594743-.6864692 1.1214747-.5751933 1.7702628l1.3085885 7.6296562-6.8518581-3.602235c-.5826481-.3063162-1.2787165-.3063162-1.8613646 0l-6.85185808 3.602235 1.30858846-7.6296562c.11127587-.6487881-.1038211-1.3107885-.57519327-1.7702628l-5.54326967-5.4033525 7.66061026-1.1131518c.6514203-.094657 1.2145515-.5037957 1.5058755-1.0940826z"></path></g></g></svg> 