<svg fill="none" height="52" viewBox="0 0 61 52" width="61" xmlns="http://www.w3.org/2000/svg"><path d="m59.5321 45.1995v.0001c.0461 2.9163-2.253 5.2984-5.1115 5.3495h-47.69591c-.87106-.015-1.72506-.2513-2.48331-.6878-2.48924-1.433-3.370007-4.6377-1.95579-7.1672l23.87251-38.63489.0008-.00129c.4256-.69056 1.003-1.27115 1.6864-1.69705 2.4385-1.51966 5.6398-.7605 7.1519 1.71271l.0032.00503 23.8367 38.57449c.4414.7747.6809 1.651.695 2.5464z" stroke="#5001d0" stroke-width="2.5"/><path d="m27.81 25.3654v-5.07h5.49v5.07l-.42 8.43h-4.68zm-.03 9.81h5.55v5.58h-5.55z" fill="#6af400"/></svg>